<svg width="1440" height="841" viewBox="0 0 1440 841" fill="none" xmlns="http://www.w3.org/2000/svg">
<g clip-path="url(#clip0_0_2896)">
<rect width="1440" height="841" fill="url(#paint0_linear_0_2896)"/>
<path d="M247.5 682.853C5.5 668.453 -115.333 769.519 -145.5 821.853L-198 890.353C366.5 908.519 1498.4 945.253 1510 946.853C1524.5 948.853 1526 416.353 1477.5 511.353C1429 606.353 1332.5 599.853 1209.5 573.853C1086.5 547.853 959.5 587.853 828.5 640.353C697.5 692.853 550 700.853 247.5 682.853Z" fill="#B96004"/>
<path d="M247.5 732.853C5.5 718.453 -115.333 819.519 -145.5 871.853L-198 940.353C366.5 958.519 1498.4 995.253 1510 996.853C1524.5 998.853 1526 466.353 1477.5 561.353C1429 656.353 1332.5 649.853 1209.5 623.853C1086.5 597.853 959.5 637.853 828.5 690.353C697.5 742.853 550 750.853 247.5 732.853Z" fill="#D88302"/>
<path d="M247.5 782.853C5.5 768.453 -115.333 869.519 -145.5 921.853L-198 990.353C366.5 1008.52 1498.4 1045.25 1510 1046.85C1524.5 1048.85 1526 516.353 1477.5 611.353C1429 706.353 1332.5 699.853 1209.5 673.853C1086.5 647.853 959.5 687.853 828.5 740.353C697.5 792.853 550 800.853 247.5 782.853Z" fill="#F9FAFB"/>
</g>
<defs>
<linearGradient id="paint0_linear_0_2896" x1="720" y1="0" x2="720" y2="841" gradientUnits="userSpaceOnUse">
<stop stop-color="#552501"/>
<stop offset="1" stop-color="#A54805"/>
</linearGradient>
<clipPath id="clip0_0_2896">
<rect width="1440" height="841" fill="white"/>
</clipPath>
</defs>
</svg>
